****La.citta.delle.donne.1980.SWESUB.DVDRip.XviD.-Zen_Bud.avi****

Format                           : AVI
File size                        : 1.47 GiB
Duration                         : 2h 13mn
Overall bit rate                 : 1 578 Kbps

Video

Format                           : MPEG-4 Visual
Codec ID/Hint                    : XviD
Duration                         : 2h 13mn
Bit rate                         : 1 437 Kbps
Width                            : 716 pixels
Height                           : 548 pixels
Display aspect ratio             : 1.858
Stream size                      : 1.34 GiB (91%)
Writing library                  : XviD 1.1.2 (UTC 2006-11-01)

Audio

Format                           : MPEG Audio
Codec ID/Hint                    : MP3
Duration                         : 2h 13mn
Bit rate                         : 128 Kbps
Channel(s)                       : 2 channels
Sampling rate                    : 48.0 KHz
Stream size                      : 122 MiB (8%)

